# xmcd
#
# Track frame offsets: 
#        150
#        17062
#        34470
#        48765
#        67325
#        85380
#        101925
#        119663
#        138455
#        153869
#
# Disc length: 2264 seconds
#
# Revision: 1
# Processed by: cddbd v1.5.2PL0 Copyright (c) Steve Scherf et al.
# Submitted via: ExactAudioCopy v0.99pb3
#
DISCID=9008d60a
DTITLE=มนต์สิทธิ์ คำสร้อย - ร้องเสียให้พอ
DYEAR=2003
DGENRE=Country
TTITLE0=ร้องเสียให้พอ
TTITLE1=จะรอสาวฆาตกร
TTITLE2=หล่อไม่พอกรี๊ด
TTITLE3=คอยน้องคืนมูล
TTITLE4=มาทวงสัญญา
TTITLE5=แม่แว่นตาดำ
TTITLE6=ดอกฝ้ายบานที่เมืองเลบ
TTITLE7=อย่าซ้ำพี่เลย
TTITLE8=แว่วเสียงหมากกะโหล่ง
TTITLE9=นักร้องอย่างเรา
EXTD=
EXTT0=
EXTT1=
EXTT2=
EXTT3=
EXTT4=
EXTT5=
EXTT6=
EXTT7=
EXTT8=
EXTT9=
PLAYORDER=
